<svg width="510" height="327" viewBox="0 0 510 327" fill="none" xmlns="http://www.w3.org/2000/svg">
<path d="M508.477 97.6189V9.27535H488.74L480.723 2L472.705 9.27535L464.687 2L456.669 9.27535L448.651 2L440.634 9.27535L432.616 2L424.598 9.27535L416.58 2L408.562 9.27535L400.544 2L392.527 9.27535L384.509 2L376.491 9.27535L368.473 2L360.455 9.27535L352.438 2L344.42 9.27535H335.785V111.13H385.775V102.816H468.712V97.6189H508.477Z" stroke="#415EB7" stroke-width="2"/>
<path d="M115.386 184.649L10.1825 184.649L10.1825 186.746L10.1825 193.874L1.99999 201.003L10.1825 208.131L2 215.26L10.1825 222.388L2 229.516L10.1825 236.645L2 243.773L10.1825 250.902L2 258.03L10.1825 265.159L2 272.287L10.1825 279.415L2 286.544L10.1825 293.672L2 300.801L10.1825 307.929L10.1825 315.606L115.386 315.606L115.386 276.77L130.874 276.77L130.874 229.807L115.386 229.807L115.386 184.649Z" stroke="#415EB7" stroke-width="2"/>
<path d="M469.422 103.088V260.075H475.222V267.257H489.144V314.456H409.096V296.1L398.932 284.976L409.096 273.851L398.932 262.726L409.096 251.602L398.932 240.477L409.096 229.353L398.932 218.228L409.096 207.103L398.932 195.979L409.096 184.854L398.932 173.729L409.096 162.605L398.932 151.48L409.096 140.355L398.932 129.231L409.096 118.106V103.088" stroke="#415EB7" stroke-width="2"/>
<path d="M107.676 94.2024V9.816H124.596L132.116 3.14832L139.636 9.816L147.156 3.14832L154.676 9.816L162.196 3.14832L169.716 9.816L177.236 3.14832L184.756 9.816L192.276 3.14832L199.796 9.816L207.316 3.14832L214.836 9.816L222.356 3.14832L229.876 9.816L237.396 3.14832L244.916 9.816L252.436 3.14832L259.956 9.816L267.476 3.14832L274.996 9.816L282.516 3.14832L290.036 9.816L297.556 3.14832L305.076 9.816L312.596 3.14832L320.116 9.816H335.783V105.386H255.888V101.319H215.361V105.386H135.466V94.2024H107.676Z" stroke="#415EB7" stroke-width="2"/>
<path d="M223.977 64.4019L226.24 64.8696V65.1814H218.508V64.8696L220.771 64.4019V44.1348L218.508 43.6671V43.3553H226.24V43.6671L223.977 44.1348V64.4019Z" fill="#415EB7"/>
<path d="M418.046 64.4019L420.089 64.8696V65.1814H413.109V64.8696L415.152 64.4019V44.1348L413.109 43.6671V43.3553H420.089V43.6671L418.046 44.1348V64.4019Z" fill="#415EB7"/>
<path d="M429.109 64.4019L431.152 64.8696V65.1814H424.172V64.8696L426.215 64.4019V44.1348L424.172 43.6671V43.3553H431.152V43.6671L429.109 44.1348V64.4019Z" fill="#415EB7"/>
<path d="M430.803 218.333L432.793 218.801V219.112H425.994V218.801L427.984 218.333V198.066L425.994 197.598V197.286H432.793V197.598L430.803 198.066V218.333Z" fill="#415EB7"/>
<path d="M441.58 218.333L443.57 218.801V219.112H436.771V218.801L438.761 218.333V198.066L436.771 197.598V197.286H443.57V197.598L441.58 198.066V218.333Z" fill="#415EB7"/>
<path d="M452.356 218.333L454.346 218.801V219.112H447.547V218.801L449.537 218.333V198.066L447.547 197.598V197.286H454.346V197.598L452.356 198.066V218.333Z" fill="#415EB7"/>
<path d="M219.71 171.512L236.378 178.328C236.748 178.48 237.149 178.546 237.55 178.523C237.952 178.5 238.342 178.388 238.69 178.195C238.93 178.061 239.147 177.892 239.333 177.693C239.694 177.304 239.917 176.815 239.972 176.297C240.027 175.779 239.91 175.257 239.639 174.807L227.99 155.477L223.504 157.958L231.27 170.845L214.602 164.028C214.102 163.823 213.548 163.775 213.017 163.889C212.487 164.003 212.008 164.274 211.647 164.664C211.286 165.053 211.063 165.542 211.008 166.059C210.953 166.577 211.07 167.099 211.341 167.549L222.99 186.879L227.475 184.398L219.71 171.512Z" fill="#C7C7C7"/>
<path d="M284.075 273.363L288.561 270.882C289.156 270.553 289.863 270.463 290.526 270.633C291.189 270.803 291.755 271.219 292.098 271.789L296.584 269.307C295.554 267.599 293.857 266.352 291.867 265.841C289.877 265.331 287.757 265.599 285.972 266.586L281.486 269.067C279.702 270.054 278.4 271.68 277.866 273.586C277.332 275.493 277.611 277.524 278.641 279.232C279.67 280.941 281.367 282.188 283.357 282.698C285.347 283.209 287.468 282.941 289.252 281.954L293.738 279.473C294.333 279.144 295.04 279.054 295.703 279.224C296.366 279.395 296.932 279.81 297.275 280.38C297.618 280.949 297.711 281.626 297.533 282.262C297.355 282.897 296.921 283.439 296.327 283.768L291.841 286.249C291.246 286.578 290.539 286.668 289.876 286.498C289.212 286.327 288.647 285.912 288.304 285.342L283.818 287.824C284.848 289.532 286.544 290.779 288.534 291.29C290.524 291.8 292.645 291.532 294.429 290.545L298.915 288.064C300.7 287.077 302.002 285.451 302.536 283.545C303.069 281.638 302.791 279.607 301.761 277.898C300.731 276.19 299.035 274.943 297.045 274.432C295.054 273.922 292.934 274.19 291.149 275.177L286.664 277.658C286.069 277.987 285.362 278.077 284.699 277.907C284.035 277.736 283.47 277.321 283.126 276.751C282.783 276.182 282.69 275.505 282.868 274.869C283.046 274.234 283.48 273.692 284.075 273.363Z" fill="#C7C7C7"/>
<path d="M321.254 181.209L318.665 176.914L305.208 184.358C304.613 184.687 304.179 185.229 304.001 185.864C303.823 186.499 303.916 187.176 304.259 187.746L314.613 204.928C314.957 205.498 315.522 205.913 316.186 206.084C316.849 206.254 317.556 206.164 318.151 205.835L331.608 198.392L329.019 194.096L317.805 200.299L315.216 196.004L321.945 192.282L319.356 187.986L312.628 191.708L310.039 187.413L321.254 181.209Z" fill="#C7C7C7"/>
<path d="M209.639 263.781C210.043 264.155 210.564 264.393 211.122 264.459C211.68 264.525 212.245 264.415 212.733 264.146L212.771 264.125C213.259 263.844 213.638 263.416 213.847 262.909C214.056 262.401 214.085 261.841 213.929 261.317L208.06 241.653L203.08 243.016L206.292 253.776L199.692 247.662C199.288 247.289 198.767 247.051 198.21 246.986C197.652 246.921 197.087 247.031 196.6 247.301C196.114 247.57 195.732 247.983 195.512 248.479C195.292 248.974 195.246 249.524 195.381 250.047L197.608 258.58L189.488 250.534L185.766 253.985L200.606 268.686C201.002 269.078 201.522 269.333 202.086 269.413C202.649 269.492 203.224 269.392 203.722 269.127C204.22 268.862 204.613 268.447 204.84 267.947C205.067 267.446 205.116 266.888 204.978 266.359L202.604 257.263L209.639 263.781Z" fill="#C7C7C7"/>
<path d="M270.313 250.525L260.595 234.4C259.672 234.645 258.717 234.763 257.76 234.751L256.451 239.433L270.313 250.525Z" fill="#C7C7C7"/>
<path d="M260.44 229.168C262.918 227.797 263.767 224.763 262.337 222.391C260.908 220.019 257.741 219.206 255.263 220.577C252.786 221.947 251.936 224.981 253.366 227.354C254.796 229.726 257.963 230.538 260.44 229.168Z" fill="#C7C7C7"/>
<path d="M250.612 217.826L240.895 201.701L243.991 218.748L248.879 220.002C249.347 219.202 249.93 218.469 250.612 217.826V217.826Z" fill="#C7C7C7"/>
<path d="M277.761 228.539L276.732 229.715L277.009 231.226L281.66 230.979L277.761 228.539Z" fill="#C7C7C7"/>
<path d="M267.791 222.232C268.046 223.116 268.169 224.03 268.157 224.948L273.044 226.199L284.631 212.917L267.791 222.232Z" fill="#C7C7C7"/>
<path d="M262.936 216.274C263.771 216.723 264.536 217.282 265.208 217.936L282.048 208.621L264.248 211.594L262.936 216.274Z" fill="#C7C7C7"/>
<path d="M264.257 201.991L261.67 205.782L262.917 206.779L264.517 206.512L264.257 201.991Z" fill="#C7C7C7"/>
<path d="M238.967 220.03L238.689 218.497L233.969 218.748L237.925 221.225L238.967 220.03Z" fill="#C7C7C7"/>
<path d="M252.764 233.467C251.928 233.019 251.164 232.46 250.492 231.806L233.652 241.121L251.452 238.148L252.764 233.467Z" fill="#C7C7C7"/>
<path d="M242.652 223.545L231.065 236.827L247.905 227.512C247.65 226.628 247.527 225.714 247.539 224.797L242.652 223.545Z" fill="#C7C7C7"/>
<path d="M252.782 242.96L251.204 243.225L251.46 247.68L254.009 243.944L252.782 242.96Z" fill="#C7C7C7"/>
<path d="M266.823 229.74C266.354 230.54 265.77 231.273 265.087 231.917L274.805 248.042L271.709 230.995L266.823 229.74Z" fill="#C7C7C7"/>
<path d="M245.381 199.22L255.098 215.345C256.022 215.101 256.976 214.982 257.934 214.994L259.243 210.312L245.381 199.22Z" fill="#C7C7C7"/>
<path d="M212.545 269.208L208.919 272.755C217.841 281.129 228.945 287.057 241.075 289.921C253.205 292.786 265.917 292.481 277.885 289.039L276.398 284.289C265.317 287.475 253.548 287.757 242.317 285.104C231.086 282.452 220.805 276.962 212.545 269.208V269.208Z" fill="#C7C7C7"/>
<path d="M302.283 269.969L305.834 273.577C314.929 265.368 321.56 254.974 325.036 243.477C328.512 231.981 328.705 219.803 325.596 208.213L320.578 209.448C323.458 220.179 323.279 231.454 320.061 242.099C316.844 252.743 310.704 262.368 302.283 269.969V269.969Z" fill="#C7C7C7"/>
<path d="M303.155 180.538L306.781 176.992C297.859 168.618 286.754 162.69 274.624 159.825C262.494 156.961 249.783 157.266 237.815 160.707L239.302 165.458C250.383 162.271 262.152 161.99 273.383 164.642C284.614 167.295 294.895 172.784 303.155 180.538V180.538Z" fill="#C7C7C7"/>
<path d="M213.412 179.772L209.862 176.163C200.471 184.714 193.727 195.581 190.372 207.567C187.016 219.552 187.18 232.191 190.845 244.09L195.805 242.664C192.412 231.647 192.261 219.945 195.368 208.848C198.474 197.751 204.718 187.69 213.412 179.772V179.772Z" fill="#C7C7C7"/>
<path d="M58.2009 237.491V238.863L55.7868 239.272C55.5337 239.316 55.3364 239.408 55.1947 239.549C55.0631 239.69 54.9973 239.875 54.9973 240.103V255.542C54.9973 255.771 55.0631 255.956 55.1947 256.096C55.3262 256.237 55.5236 256.329 55.7868 256.373L58.2009 256.756V258.102H48.3926V256.756L50.8219 256.373C51.0851 256.329 51.2824 256.237 51.414 256.096C51.5456 255.956 51.6114 255.771 51.6114 255.542V240.103C51.6114 239.884 51.5406 239.703 51.3989 239.562C51.2673 239.413 51.0749 239.316 50.8219 239.272L48.3926 238.863V237.491H58.2009Z" fill="#415EB7"/>
<path d="M73.3499 258.168H70.2677L62.3725 239.971C62.2915 239.778 62.1751 239.628 62.0232 239.523C61.8815 239.417 61.6993 239.334 61.4766 239.272L59.7306 238.863V237.491H68.8709V238.863L65.7431 239.391L72.3782 255.199L78.2996 239.391L75.1871 238.863V237.491H83.1886V238.863L81.3515 239.272C81.1288 239.334 80.9364 239.417 80.7745 239.523C80.6227 239.628 80.5113 239.778 80.4405 239.971L73.3499 258.168Z" fill="#415EB7"/>
<rect x="2.5" y="11.6887" width="90.5007" height="162.121" stroke="#E2E2E2"/>
</svg>
